<?xml version="1.0" standalone="no"?>
<!DOCTYPE svg PUBLIC "-//W3C//DTD SVG 20010904//EN"
 "http://www.w3.org/TR/2001/REC-SVG-20010904/DTD/svg10.dtd">
<svg version="1.0" xmlns="http://www.w3.org/2000/svg"
 width="512.000000pt" height="512.000000pt" viewBox="0 0 512.000000 512.000000"
 preserveAspectRatio="xMidYMid meet">

<g transform="translate(0.000000,512.000000) scale(0.100000,-0.100000)"
fill="#000000" stroke="none">
<path d="M2365 5110 c-792 -73 -1476 -539 -1825 -1242 -81 -164 -120 -269
-165 -443 -99 -384 -96 -770 10 -1162 86 -322 274 -667 492 -904 34 -38 63
-72 63 -77 0 -4 -28 -23 -62 -42 -133 -75 -228 -195 -228 -284 1 -223 397
-431 1025 -536 758 -128 1727 -73 2296 130 385 137 552 315 469 498 -25 55
-109 136 -191 184 -35 21 -68 39 -73 41 -6 2 25 45 69 96 388 448 584 1002
562 1586 -13 327 -84 607 -232 910 -114 234 -254 424 -451 615 -348 337 -768
544 -1247 615 -131 19 -389 27 -512 15z m520 -190 c204 -34 172 -7 315 -266
69 -125 124 -229 123 -233 -1 -3 -87 -159 -191 -346 l-189 -340 -385 -3 -385
-2 -192 344 c-105 190 -191 348 -191 351 0 9 232 428 247 447 17 19 187 53
333 68 134 12 374 3 515 -20z m-1056 -924 c105 -188 191 -347 191 -352 0 -5
-85 -162 -189 -349 l-189 -340 -387 0 -387 0 -150 269 -150 269 28 76 c87 244
229 480 414 690 l71 81 279 0 278 0 191 -344z m2270 267 c93 -102 176 -214
252 -341 60 -101 154 -305 179 -389 l13 -42 -149 -270 -149 -270 -386 -1 -385
0 -193 346 c-105 191 -191 350 -189 354 2 4 88 161 193 348 l190 342 277 0
277 0 70 -77z m-2270 -1828 c105 -189 191 -348 191 -353 0 -5 -85 -162 -188
-348 l-189 -339 -278 -3 -279 -2 -34 32 c-51 50 -172 202 -236 298 -72 108
-163 287 -210 414 l-37 98 152 274 151 274 383 0 382 0 192 -345z m2564 70
l150 -270 -27 -80 c-79 -233 -247 -507 -432 -707 l-53 -58 -279 0 -279 0 -192
346 -192 346 193 349 193 349 384 -3 384 -2 150 -270z m-1264 -849 c105 -188
191 -349 191 -357 -1 -8 -56 -113 -124 -233 -139 -249 -109 -224 -296 -257
-231 -41 -549 -34 -783 17 l-76 17 -127 228 c-69 126 -124 232 -122 237 1 5
88 163 193 350 l190 342 382 0 381 0 191 -344z"/>
</g>
</svg>
